<svg xmlns="http://www.w3.org/2000/svg" version="1.1" viewBox="0 0 256 256" width="256" height="256">
<g stroke-width="2.00" fill="none" stroke-linecap="butt">
<path stroke="#ab9eff" vector-effect="non-scaling-stroke" d="&#10;  M 154.22 87.68&#10;  L 155.03 90.09&#10;  A 1.00 1.00 0.0 0 1 154.74 91.16&#10;  L 151.81 93.76&#10;  A 1.02 1.00 64.0 0 0 151.49 94.71&#10;  L 151.71 95.75"/>
<path stroke="#ab9eff" vector-effect="non-scaling-stroke" d="&#10;  M 94.54 150.00&#10;  Q 92.97 151.05 92.60 152.96&#10;  Q 92.55 153.21 92.38 153.41&#10;  L 89.59 156.72"/>
<path stroke="#bb95ff" vector-effect="non-scaling-stroke" d="&#10;  M 190.31 144.67&#10;  Q 192.18 145.81 191.51 146.06&#10;  A 0.40 0.40 0.0 0 0 191.25 146.54&#10;  C 191.42 147.28 191.25 147.40 190.64 147.77&#10;  Q 186.92 150.04 186.21 154.16"/>
<path stroke="#bb95ff" vector-effect="non-scaling-stroke" d="&#10;  M 148.29 169.64&#10;  L 141.63 175.02&#10;  A 1.00 1.00 0.0 0 0 141.35 176.22&#10;  Q 142.21 178.09 140.96 179.75"/>
<path stroke="#ab9eff" vector-effect="non-scaling-stroke" d="&#10;  M 211.57 0.03&#10;  Q 206.85 0.61 214.24 0.71&#10;  A 0.26 0.26 0.0 0 1 214.50 0.97&#10;  L 214.50 1.25&#10;  A 0.52 0.50 -11.2 0 1 214.17 1.72&#10;  C 212.42 2.41 211.68 3.92 210.68 4.93&#10;  Q 198.03 17.67 185.24 30.30&#10;  A 0.99 0.97 25.2 0 1 184.44 30.58&#10;  Q 183.81 30.52 183.30 30.71&#10;  Q 181.13 31.50 183.44 31.50&#10;  L 207.75 31.50&#10;  Q 208.28 31.50 207.71 31.70&#10;  L 207.00 31.96"/>
<path stroke="#ab9eff" vector-effect="non-scaling-stroke" d="&#10;  M 31.96 196.00&#10;  Q 31.08 198.25 30.98 196.74&#10;  A 0.52 0.50 6.5 0 0 30.60 196.28&#10;  L 30.23 196.18&#10;  A 1.02 1.01 30.1 0 0 29.26 196.43&#10;  L 0.02 225.46"/>
</g>
<path fill="#8cafff" d="&#10;  M 29.56 0.00&#10;  L 95.81 0.00&#10;  L 95.94 30.97&#10;  A 1.00 1.00 0.0 0 1 94.95 31.98&#10;  Q 73.45 32.01 51.95 32.01&#10;  C 37.08 32.01 31.97 39.32 31.99 53.40&#10;  Q 32.03 74.18 31.97 94.93&#10;  A 1.00 1.00 0.0 0 1 30.97 95.93&#10;  L 0.00 95.69&#10;  L 0.00 29.44&#10;  Q 4.35 4.27 29.56 0.00&#10;  Z"/>
<path fill="#a3a2ff" d="&#10;  M 160.31 0.00&#10;  L 211.57 0.03&#10;  Q 206.85 0.61 214.24 0.71&#10;  A 0.26 0.26 0.0 0 1 214.50 0.97&#10;  L 214.50 1.25&#10;  A 0.52 0.50 -11.2 0 1 214.17 1.72&#10;  C 212.42 2.41 211.68 3.92 210.68 4.93&#10;  Q 198.03 17.67 185.24 30.30&#10;  A 0.99 0.97 25.2 0 1 184.44 30.58&#10;  Q 183.81 30.52 183.30 30.71&#10;  Q 181.13 31.50 183.44 31.50&#10;  L 207.75 31.50&#10;  Q 208.28 31.50 207.71 31.70&#10;  L 207.00 31.96&#10;  L 161.15 31.82&#10;  A 1.01 1.00 88.8 0 1 160.15 30.85&#10;  Q 159.65 15.42 160.31 0.00&#10;  Z"/>
<path fill="#b399ff" d="&#10;  M 211.57 0.03&#10;  L 226.06 0.00&#10;  Q 251.82 4.09 256.00 29.81&#10;  L 256.00 96.06&#10;  L 225.00 96.02&#10;  A 1.00 1.00 0.0 0 1 224.00 95.02&#10;  Q 224.01 73.33 223.99 51.52&#10;  C 223.98 40.44 219.10 32.80 207.00 31.96&#10;  L 207.71 31.70&#10;  Q 208.28 31.50 207.75 31.50&#10;  L 183.44 31.50&#10;  Q 181.13 31.50 183.30 30.71&#10;  Q 183.81 30.52 184.44 30.58&#10;  A 0.99 0.97 25.2 0 0 185.24 30.30&#10;  Q 198.03 17.67 210.68 4.93&#10;  C 211.68 3.92 212.42 2.41 214.17 1.72&#10;  A 0.52 0.50 -11.2 0 0 214.50 1.25&#10;  L 214.50 0.97&#10;  A 0.26 0.26 0.0 0 0 214.24 0.71&#10;  Q 206.85 0.61 211.57 0.03&#10;  Z"/>
<path fill="#a3a2ff" d="&#10;  M 154.22 87.68&#10;  L 155.03 90.09&#10;  A 1.00 1.00 0.0 0 1 154.74 91.16&#10;  L 151.81 93.76&#10;  A 1.02 1.00 64.0 0 0 151.49 94.71&#10;  L 151.71 95.75&#10;  C 131.64 82.01 104.57 87.43 92.92 109.30&#10;  Q 82.57 128.75 94.54 150.00&#10;  Q 92.97 151.05 92.60 152.96&#10;  Q 92.55 153.21 92.38 153.41&#10;  L 89.59 156.72&#10;  C 80.78 146.57 78.23 131.42 80.65 118.69&#10;  C 83.88 101.72 98.22 85.64 115.22 81.42&#10;  C 128.01 78.24 143.34 79.64 154.22 87.68&#10;  Z"/>
<path fill="#b399ff" d="&#10;  M 154.22 87.68&#10;  C 167.95 96.97 176.31 111.17 176.00 128.17&#10;  A 1.00 1.00 0.0 0 1 174.68 129.10&#10;  L 168.74 127.08&#10;  A 0.99 0.98 -84.9 0 1 168.07 126.27&#10;  C 166.35 113.67 161.97 103.69 151.71 95.75&#10;  L 151.49 94.71&#10;  A 1.02 1.00 64.0 0 1 151.81 93.76&#10;  L 154.74 91.16&#10;  A 1.00 1.00 0.0 0 0 155.03 90.09&#10;  L 154.22 87.68&#10;  Z"/>
<path fill="#b399ff" d="&#10;  M 190.31 144.67&#10;  Q 192.18 145.81 191.51 146.06&#10;  A 0.40 0.40 0.0 0 0 191.25 146.54&#10;  C 191.42 147.28 191.25 147.40 190.64 147.77&#10;  Q 186.92 150.04 186.21 154.16&#10;  L 138.48 137.23&#10;  Q 136.50 136.52 137.21 138.50&#10;  L 148.29 169.64&#10;  L 141.63 175.02&#10;  A 1.00 1.00 0.0 0 0 141.35 176.22&#10;  Q 142.21 178.09 140.96 179.75&#10;  L 122.64 128.78&#10;  A 1.01 1.00 44.6 0 1 122.63 128.12&#10;  C 124.90 121.37 128.90 122.79 134.10 124.63&#10;  Q 162.24 134.59 190.31 144.67&#10;  Z"/>
<path fill="#c290ff" d="&#10;  M 190.31 144.67&#10;  Q 203.37 149.16 216.39 153.71&#10;  Q 219.76 154.89 222.22 157.58&#10;  Q 224.18 159.72 222.44 162.03&#10;  C 220.05 165.20 216.46 166.18 212.76 167.59&#10;  Q 196.40 173.86 180.33 179.90&#10;  A 1.00 1.00 0.0 0 0 179.74 180.49&#10;  Q 173.66 197.21 167.24 213.68&#10;  C 166.12 216.54 165.59 218.99 163.34 221.26&#10;  C 160.23 224.39 156.36 222.59 154.99 219.00&#10;  Q 149.22 203.92 140.96 179.75&#10;  Q 142.21 178.09 141.35 176.22&#10;  A 1.00 1.00 0.0 0 1 141.63 175.02&#10;  L 148.29 169.64&#10;  L 159.25 200.24&#10;  Q 160.15 202.74 161.13 200.26&#10;  Q 165.24 189.82 169.10 179.27&#10;  C 171.12 173.74 172.93 171.42 178.24 169.46&#10;  Q 189.24 165.41 200.19 161.19&#10;  Q 202.67 160.24 200.18 159.32&#10;  L 186.21 154.16&#10;  Q 186.92 150.04 190.64 147.77&#10;  C 191.25 147.40 191.42 147.28 191.25 146.54&#10;  A 0.40 0.40 0.0 0 1 191.51 146.06&#10;  Q 192.18 145.81 190.31 144.67&#10;  Z"/>
<path fill="#b399ff" d="&#10;  M 94.54 150.00&#10;  C 102.40 161.23 112.94 166.45 126.43 168.11&#10;  A 1.00 1.00 0.0 0 1 127.27 168.83&#10;  L 129.03 175.13&#10;  A 1.00 1.00 0.0 0 1 128.03 176.40&#10;  Q 103.60 175.41 89.59 156.72&#10;  L 92.38 153.41&#10;  Q 92.55 153.21 92.60 152.96&#10;  Q 92.97 151.05 94.54 150.00&#10;  Z"/>
<path fill="#a3a2ff" d="&#10;  M 31.96 196.00&#10;  Q 31.08 198.25 30.98 196.74&#10;  A 0.52 0.50 6.5 0 0 30.60 196.28&#10;  L 30.23 196.18&#10;  A 1.02 1.01 30.1 0 0 29.26 196.43&#10;  L 0.02 225.46&#10;  L 0.00 160.36&#10;  L 30.98 160.01&#10;  A 1.00 0.99 89.4 0 1 31.99 161.01&#10;  L 31.96 196.00&#10;  Z"/>
<path fill="#d486ff" d="&#10;  M 256.00 160.31&#10;  L 256.00 225.81&#10;  Q 252.12 251.51 226.42 256.05&#10;  L 160.36 256.00&#10;  L 159.99 225.08&#10;  A 1.00 1.00 0.0 0 1 160.98 224.07&#10;  Q 179.89 223.86 198.50 224.10&#10;  Q 209.56 224.25 213.33 222.81&#10;  C 221.16 219.81 223.99 213.06 223.99 204.80&#10;  Q 224.01 182.94 224.00 161.10&#10;  A 1.00 1.00 0.0 0 1 224.97 160.10&#10;  Q 240.29 159.68 256.00 160.31&#10;  Z"/>
<path fill="#b399ff" d="&#10;  M 31.96 196.00&#10;  C 30.26 212.46 33.97 224.01 52.51 223.99&#10;  Q 73.70 223.96 94.88 224.07&#10;  A 1.01 1.00 -0.6 0 1 95.88 225.04&#10;  Q 96.33 240.65 95.69 256.00&#10;  L 29.44 256.00&#10;  Q 4.09 251.58 0.00 226.19&#10;  L 0.02 225.46&#10;  L 29.26 196.43&#10;  A 1.02 1.01 30.1 0 1 30.23 196.18&#10;  L 30.60 196.28&#10;  A 0.52 0.50 6.5 0 1 30.98 196.74&#10;  Q 31.08 198.25 31.96 196.00&#10;  Z"/>
</svg>